o prison_details
v -6.0775 3.6725 0
v -6.0225 3.6725 0
v -6.0775 3.7275 0
v -6.0225 3.7275 0
v -6.0775 3.6725 2.8
v -6.0225 3.6725 2.8
v -6.0775 3.7275 2.8
v -6.0225 3.7275 2.8
v -5.5775 3.6725 0
v -5.5225 3.6725 0
v -5.5775 3.7275 0
v -5.5225 3.7275 0
v -5.5775 3.6725 2.8
v -5.5225 3.6725 2.8
v -5.5775 3.7275 2.8
v -5.5225 3.7275 2.8
v -5.0775 3.6725 0
v -5.0225 3.6725 0
v -5.0775 3.7275 0
v -5.0225 3.7275 0
v -5.0775 3.6725 2.8
v -5.0225 3.6725 2.8
v -5.0775 3.7275 2.8
v -5.0225 3.7275 2.8
v -4.5775 3.6725 0
v -4.5225 3.6725 0
v -4.5775 3.7275 0
v -4.5225 3.7275 0
v -4.5775 3.6725 2.8
v -4.5225 3.6725 2.8
v -4.5775 3.7275 2.8
v -4.5225 3.7275 2.8
v -4.0775 3.6725 0
v -4.0225 3.6725 0
v -4.0775 3.7275 0
v -4.0225 3.7275 0
v -4.0775 3.6725 2.8
v -4.0225 3.6725 2.8
v -4.0775 3.7275 2.8
v -4.0225 3.7275 2.8
v -3.5775 3.6725 0
v -3.5225 3.6725 0
v -3.5775 3.7275 0
v -3.5225 3.7275 0
v -3.5775 3.6725 2.8
v -3.5225 3.6725 2.8
v -3.5775 3.7275 2.8
v -3.5225 3.7275 2.8
v -6.15 3.66 0.51
v -3.45 3.66 0.51
v -6.15 3.74 0.51
v -3.45 3.74 0.51
v -6.15 3.66 0.59
v -3.45 3.66 0.59
v -6.15 3.74 0.59
v -3.45 3.74 0.59
v -6.15 3.66 2.21
v -3.45 3.66 2.21
v -6.15 3.74 2.21
v -3.45 3.74 2.21
v -6.15 3.66 2.29
v -3.45 3.66 2.29
v -6.15 3.74 2.29
v -3.45 3.74 2.29
v -5.7 4.025 0.36
v -3.9 4.025 0.36
v -5.7 4.675 0.36
v -3.9 4.675 0.36
v -5.7 4.025 0.54
v -3.9 4.025 0.54
v -5.7 4.675 0.54
v -3.9 4.675 0.54
v -5.7 4.025 1.56
v -3.9 4.025 1.56
v -5.7 4.675 1.56
v -3.9 4.675 1.56
v -5.7 4.025 1.74
v -3.9 4.025 1.74
v -5.7 4.675 1.74
v -3.9 4.675 1.74
v -2.9775 3.6725 0
v -2.9225 3.6725 0
v -2.9775 3.7275 0
v -2.9225 3.7275 0
v -2.9775 3.6725 2.8
v -2.9225 3.6725 2.8
v -2.9775 3.7275 2.8
v -2.9225 3.7275 2.8
v -2.4775 3.6725 0
v -2.4225 3.6725 0
v -2.4775 3.7275 0
v -2.4225 3.7275 0
v -2.4775 3.6725 2.8
v -2.4225 3.6725 2.8
v -2.4775 3.7275 2.8
v -2.4225 3.7275 2.8
v -1.9775 3.6725 0
v -1.9225 3.6725 0
v -1.9775 3.7275 0
v -1.9225 3.7275 0
v -1.9775 3.6725 2.8
v -1.9225 3.6725 2.8
v -1.9775 3.7275 2.8
v -1.9225 3.7275 2.8
v -1.4775 3.6725 0
v -1.4225 3.6725 0
v -1.4775 3.7275 0
v -1.4225 3.7275 0
v -1.4775 3.6725 2.8
v -1.4225 3.6725 2.8
v -1.4775 3.7275 2.8
v -1.4225 3.7275 2.8
v -0.9775 3.6725 0
v -0.9225 3.6725 0
v -0.9775 3.7275 0
v -0.9225 3.7275 0
v -0.9775 3.6725 2.8
v -0.9225 3.6725 2.8
v -0.9775 3.7275 2.8
v -0.9225 3.7275 2.8
v -0.4775 3.6725 0
v -0.4225 3.6725 0
v -0.4775 3.7275 0
v -0.4225 3.7275 0
v -0.4775 3.6725 2.8
v -0.4225 3.6725 2.8
v -0.4775 3.7275 2.8
v -0.4225 3.7275 2.8
v -3.05 3.66 0.51
v -0.35 3.66 0.51
v -3.05 3.74 0.51
v -0.35 3.74 0.51
v -3.05 3.66 0.59
v -0.35 3.66 0.59
v -3.05 3.74 0.59
v -0.35 3.74 0.59
v -3.05 3.66 2.21
v -0.35 3.66 2.21
v -3.05 3.74 2.21
v -0.35 3.74 2.21
v -3.05 3.66 2.29
v -0.35 3.66 2.29
v -3.05 3.74 2.29
v -0.35 3.74 2.29
v -2.6 4.025 0.36
v -0.8 4.025 0.36
v -2.6 4.675 0.36
v -0.8 4.675 0.36
v -2.6 4.025 0.54
v -0.8 4.025 0.54
v -2.6 4.675 0.54
v -0.8 4.675 0.54
v -2.6 4.025 1.56
v -0.8 4.025 1.56
v -2.6 4.675 1.56
v -0.8 4.675 1.56
v -2.6 4.025 1.74
v -0.8 4.025 1.74
v -2.6 4.675 1.74
v -0.8 4.675 1.74
v 0.1225 3.6725 0
v 0.1775 3.6725 0
v 0.1225 3.7275 0
v 0.1775 3.7275 0
v 0.1225 3.6725 2.8
v 0.1775 3.6725 2.8
v 0.1225 3.7275 2.8
v 0.1775 3.7275 2.8
v 0.6225 3.6725 0
v 0.6775 3.6725 0
v 0.6225 3.7275 0
v 0.6775 3.7275 0
v 0.6225 3.6725 2.8
v 0.6775 3.6725 2.8
v 0.6225 3.7275 2.8
v 0.6775 3.7275 2.8
v 1.1225 3.6725 0
v 1.1775 3.6725 0
v 1.1225 3.7275 0
v 1.1775 3.7275 0
v 1.1225 3.6725 2.8
v 1.1775 3.6725 2.8
v 1.1225 3.7275 2.8
v 1.1775 3.7275 2.8
v 1.6225 3.6725 0
v 1.6775 3.6725 0
v 1.6225 3.7275 0
v 1.6775 3.7275 0
v 1.6225 3.6725 2.8
v 1.6775 3.6725 2.8
v 1.6225 3.7275 2.8
v 1.6775 3.7275 2.8
v 2.1225 3.6725 0
v 2.1775 3.6725 0
v 2.1225 3.7275 0
v 2.1775 3.7275 0
v 2.1225 3.6725 2.8
v 2.1775 3.6725 2.8
v 2.1225 3.7275 2.8
v 2.1775 3.7275 2.8
v 2.6225 3.6725 0
v 2.6775 3.6725 0
v 2.6225 3.7275 0
v 2.6775 3.7275 0
v 2.6225 3.6725 2.8
v 2.6775 3.6725 2.8
v 2.6225 3.7275 2.8
v 2.6775 3.7275 2.8
v 0.05 3.66 0.51
v 2.75 3.66 0.51
v 0.05 3.74 0.51
v 2.75 3.74 0.51
v 0.05 3.66 0.59
v 2.75 3.66 0.59
v 0.05 3.74 0.59
v 2.75 3.74 0.59
v 0.05 3.66 2.21
v 2.75 3.66 2.21
v 0.05 3.74 2.21
v 2.75 3.74 2.21
v 0.05 3.66 2.29
v 2.75 3.66 2.29
v 0.05 3.74 2.29
v 2.75 3.74 2.29
v 0.5 4.025 0.36
v 2.3 4.025 0.36
v 0.5 4.675 0.36
v 2.3 4.675 0.36
v 0.5 4.025 0.54
v 2.3 4.025 0.54
v 0.5 4.675 0.54
v 2.3 4.675 0.54
v 0.5 4.025 1.56
v 2.3 4.025 1.56
v 0.5 4.675 1.56
v 2.3 4.675 1.56
v 0.5 4.025 1.74
v 2.3 4.025 1.74
v 0.5 4.675 1.74
v 2.3 4.675 1.74
v 5.975 -1.76 0.005
v 6.525 -1.76 0.005
v 5.975 -1.34 0.005
v 6.525 -1.34 0.005
v 5.975 -1.76 0.355
v 6.525 -1.76 0.355
v 5.975 -1.34 0.355
v 6.525 -1.34 0.355
v 6.31 -1.34 0.01
v 6.73 -1.34 0.01
v 6.31 -0.76 0.01
v 6.73 -0.76 0.01
v 6.31 -1.34 0.43
v 6.73 -1.34 0.43
v 6.31 -0.76 0.43
v 6.73 -0.76 0.43
v 5.825 1.21 0.01
v 6.475 1.21 0.01
v 5.825 1.69 0.01
v 6.475 1.69 0.01
v 5.825 1.21 0.49
v 6.475 1.21 0.49
v 5.825 1.69 0.49
v 6.475 1.69 0.49
v 5.6 1.66 0.01
v 6.1 1.66 0.01
v 5.6 2.04 0.01
v 6.1 2.04 0.01
v 5.6 1.66 0.31
v 6.1 1.66 0.31
v 5.6 2.04 0.31
v 6.1 2.04 0.31
v 6.175 0.94 0
v 6.525 0.94 0
v 6.175 1.26 0
v 6.525 1.26 0
v 6.175 0.94 0.24
v 6.525 0.94 0.24
v 6.175 1.26 0.24
v 6.525 1.26 0.24
f 1 4 2
f 1 3 4
f 5 6 8
f 5 8 7
f 1 2 6
f 1 6 5
f 2 4 8
f 2 8 6
f 4 3 7
f 4 7 8
f 3 1 5
f 3 5 7
f 9 12 10
f 9 11 12
f 13 14 16
f 13 16 15
f 9 10 14
f 9 14 13
f 10 12 16
f 10 16 14
f 12 11 15
f 12 15 16
f 11 9 13
f 11 13 15
f 17 20 18
f 17 19 20
f 21 22 24
f 21 24 23
f 17 18 22
f 17 22 21
f 18 20 24
f 18 24 22
f 20 19 23
f 20 23 24
f 19 17 21
f 19 21 23
f 25 28 26
f 25 27 28
f 29 30 32
f 29 32 31
f 25 26 30
f 25 30 29
f 26 28 32
f 26 32 30
f 28 27 31
f 28 31 32
f 27 25 29
f 27 29 31
f 33 36 34
f 33 35 36
f 37 38 40
f 37 40 39
f 33 34 38
f 33 38 37
f 34 36 40
f 34 40 38
f 36 35 39
f 36 39 40
f 35 33 37
f 35 37 39
f 41 44 42
f 41 43 44
f 45 46 48
f 45 48 47
f 41 42 46
f 41 46 45
f 42 44 48
f 42 48 46
f 44 43 47
f 44 47 48
f 43 41 45
f 43 45 47
f 49 52 50
f 49 51 52
f 53 54 56
f 53 56 55
f 49 50 54
f 49 54 53
f 50 52 56
f 50 56 54
f 52 51 55
f 52 55 56
f 51 49 53
f 51 53 55
f 57 60 58
f 57 59 60
f 61 62 64
f 61 64 63
f 57 58 62
f 57 62 61
f 58 60 64
f 58 64 62
f 60 59 63
f 60 63 64
f 59 57 61
f 59 61 63
f 65 68 66
f 65 67 68
f 69 70 72
f 69 72 71
f 65 66 70
f 65 70 69
f 66 68 72
f 66 72 70
f 68 67 71
f 68 71 72
f 67 65 69
f 67 69 71
f 73 76 74
f 73 75 76
f 77 78 80
f 77 80 79
f 73 74 78
f 73 78 77
f 74 76 80
f 74 80 78
f 76 75 79
f 76 79 80
f 75 73 77
f 75 77 79
f 81 84 82
f 81 83 84
f 85 86 88
f 85 88 87
f 81 82 86
f 81 86 85
f 82 84 88
f 82 88 86
f 84 83 87
f 84 87 88
f 83 81 85
f 83 85 87
f 89 92 90
f 89 91 92
f 93 94 96
f 93 96 95
f 89 90 94
f 89 94 93
f 90 92 96
f 90 96 94
f 92 91 95
f 92 95 96
f 91 89 93
f 91 93 95
f 97 100 98
f 97 99 100
f 101 102 104
f 101 104 103
f 97 98 102
f 97 102 101
f 98 100 104
f 98 104 102
f 100 99 103
f 100 103 104
f 99 97 101
f 99 101 103
f 105 108 106
f 105 107 108
f 109 110 112
f 109 112 111
f 105 106 110
f 105 110 109
f 106 108 112
f 106 112 110
f 108 107 111
f 108 111 112
f 107 105 109
f 107 109 111
f 113 116 114
f 113 115 116
f 117 118 120
f 117 120 119
f 113 114 118
f 113 118 117
f 114 116 120
f 114 120 118
f 116 115 119
f 116 119 120
f 115 113 117
f 115 117 119
f 121 124 122
f 121 123 124
f 125 126 128
f 125 128 127
f 121 122 126
f 121 126 125
f 122 124 128
f 122 128 126
f 124 123 127
f 124 127 128
f 123 121 125
f 123 125 127
f 129 132 130
f 129 131 132
f 133 134 136
f 133 136 135
f 129 130 134
f 129 134 133
f 130 132 136
f 130 136 134
f 132 131 135
f 132 135 136
f 131 129 133
f 131 133 135
f 137 140 138
f 137 139 140
f 141 142 144
f 141 144 143
f 137 138 142
f 137 142 141
f 138 140 144
f 138 144 142
f 140 139 143
f 140 143 144
f 139 137 141
f 139 141 143
f 145 148 146
f 145 147 148
f 149 150 152
f 149 152 151
f 145 146 150
f 145 150 149
f 146 148 152
f 146 152 150
f 148 147 151
f 148 151 152
f 147 145 149
f 147 149 151
f 153 156 154
f 153 155 156
f 157 158 160
f 157 160 159
f 153 154 158
f 153 158 157
f 154 156 160
f 154 160 158
f 156 155 159
f 156 159 160
f 155 153 157
f 155 157 159
f 161 164 162
f 161 163 164
f 165 166 168
f 165 168 167
f 161 162 166
f 161 166 165
f 162 164 168
f 162 168 166
f 164 163 167
f 164 167 168
f 163 161 165
f 163 165 167
f 169 172 170
f 169 171 172
f 173 174 176
f 173 176 175
f 169 170 174
f 169 174 173
f 170 172 176
f 170 176 174
f 172 171 175
f 172 175 176
f 171 169 173
f 171 173 175
f 177 180 178
f 177 179 180
f 181 182 184
f 181 184 183
f 177 178 182
f 177 182 181
f 178 180 184
f 178 184 182
f 180 179 183
f 180 183 184
f 179 177 181
f 179 181 183
f 185 188 186
f 185 187 188
f 189 190 192
f 189 192 191
f 185 186 190
f 185 190 189
f 186 188 192
f 186 192 190
f 188 187 191
f 188 191 192
f 187 185 189
f 187 189 191
f 193 196 194
f 193 195 196
f 197 198 200
f 197 200 199
f 193 194 198
f 193 198 197
f 194 196 200
f 194 200 198
f 196 195 199
f 196 199 200
f 195 193 197
f 195 197 199
f 201 204 202
f 201 203 204
f 205 206 208
f 205 208 207
f 201 202 206
f 201 206 205
f 202 204 208
f 202 208 206
f 204 203 207
f 204 207 208
f 203 201 205
f 203 205 207
f 209 212 210
f 209 211 212
f 213 214 216
f 213 216 215
f 209 210 214
f 209 214 213
f 210 212 216
f 210 216 214
f 212 211 215
f 212 215 216
f 211 209 213
f 211 213 215
f 217 220 218
f 217 219 220
f 221 222 224
f 221 224 223
f 217 218 222
f 217 222 221
f 218 220 224
f 218 224 222
f 220 219 223
f 220 223 224
f 219 217 221
f 219 221 223
f 225 228 226
f 225 227 228
f 229 230 232
f 229 232 231
f 225 226 230
f 225 230 229
f 226 228 232
f 226 232 230
f 228 227 231
f 228 231 232
f 227 225 229
f 227 229 231
f 233 236 234
f 233 235 236
f 237 238 240
f 237 240 239
f 233 234 238
f 233 238 237
f 234 236 240
f 234 240 238
f 236 235 239
f 236 239 240
f 235 233 237
f 235 237 239
f 241 244 242
f 241 243 244
f 245 246 248
f 245 248 247
f 241 242 246
f 241 246 245
f 242 244 248
f 242 248 246
f 244 243 247
f 244 247 248
f 243 241 245
f 243 245 247
f 249 252 250
f 249 251 252
f 253 254 256
f 253 256 255
f 249 250 254
f 249 254 253
f 250 252 256
f 250 256 254
f 252 251 255
f 252 255 256
f 251 249 253
f 251 253 255
f 257 260 258
f 257 259 260
f 261 262 264
f 261 264 263
f 257 258 262
f 257 262 261
f 258 260 264
f 258 264 262
f 260 259 263
f 260 263 264
f 259 257 261
f 259 261 263
f 265 268 266
f 265 267 268
f 269 270 272
f 269 272 271
f 265 266 270
f 265 270 269
f 266 268 272
f 266 272 270
f 268 267 271
f 268 271 272
f 267 265 269
f 267 269 271
f 273 276 274
f 273 275 276
f 277 278 280
f 277 280 279
f 273 274 278
f 273 278 277
f 274 276 280
f 274 280 278
f 276 275 279
f 276 279 280
f 275 273 277
f 275 277 279
