o ceiling_lights
v -4.86 -1.66 3.58
v -4.14 -1.66 3.58
v -4.86 -1.94 3.58
v -4.14 -1.94 3.58
v -4.86 -1.66 3.48
v -4.14 -1.66 3.48
v -4.86 -1.94 3.48
v -4.14 -1.94 3.48
v -0.36 -1.66 3.58
v 0.36 -1.66 3.58
v -0.36 -1.94 3.58
v 0.36 -1.94 3.58
v -0.36 -1.66 3.48
v 0.36 -1.66 3.48
v -0.36 -1.94 3.48
v 0.36 -1.94 3.48
v 4.14 -1.66 3.58
v 4.86 -1.66 3.58
v 4.14 -1.94 3.58
v 4.86 -1.94 3.58
v 4.14 -1.66 3.48
v 4.86 -1.66 3.48
v 4.14 -1.94 3.48
v 4.86 -1.94 3.48
v 13.1394895209 0.639964823679 2.89470844847
v 13.8589204594 0.639799213039 2.86608857203
v 13.1394895209 0.359969511361 2.89632865822
v 13.8589204594 0.35980390072 2.86770878179
v 13.1355144715 0.639386634678 2.79478915764
v 13.85494541 0.639221024037 2.7661692812
v 13.1355144715 0.359391322359 2.7964093674
v 13.85494541 0.359225711718 2.76778949096
v 25.1412561515 1.64017278602 1.98719175261
v 25.8525379754 1.63963299491 1.87548734042
v 25.1412561515 1.36017605514 1.98854478551
v 25.8525379754 1.35963626404 1.87684037332
v 25.1257414687 1.63969541116 1.88840376381
v 25.8370232925 1.63915562006 1.77669935162
v 25.1257414687 1.35969868029 1.88975679672
v 25.8370232925 1.35915888918 1.77805238453
v 39.140293136 3.49061072256 0.861460788343
v 39.8547553063 3.48822816895 0.772364600209
v 39.140293136 3.21071078297 0.868945694543
v 39.8547553063 3.20832822936 0.77984950641
v 39.1279142417 3.48795810235 0.762265392368
v 39.842376412 3.48557554875 0.673169204235
v 39.1279142417 3.20805816277 0.769750298569
v 39.842376412 3.20567560916 0.680654110435
v 53.1397173718 4.79011778487 0.0739864572634
v 53.8565130437 4.78952136524 0.00613655684921
v 53.1397173718 4.51012860191 0.0764476406011
v 53.8565130437 4.50953218228 0.00859774018692
v 53.1302934104 4.78924270275 -0.0255646511371
v 53.8470890823 4.78864628312 -0.0934145515513
v 53.1302934104 4.50925351978 -0.0231034677994
v 53.8470890823 4.50865710015 -0.0909533682136
v 66.6427499101 7.79016193242 0.210730906812
v 67.3604468664 7.78996970419 0.268272561011
v 66.6427499101 7.51016349483 0.209795521705
v 67.3604468664 7.50997126659 0.267337175904
v 66.6507418511 7.79049492997 0.111051330211
v 67.3684388074 7.79030270173 0.16859298441
v 66.6507418511 7.51049649237 0.110115945103
v 67.3684388074 7.51030426413 0.167657599302
f 1 4 2
f 1 3 4
f 5 6 8
f 5 8 7
f 1 2 6
f 1 6 5
f 2 4 8
f 2 8 6
f 4 3 7
f 4 7 8
f 3 1 5
f 3 5 7
f 9 12 10
f 9 11 12
f 13 14 16
f 13 16 15
f 9 10 14
f 9 14 13
f 10 12 16
f 10 16 14
f 12 11 15
f 12 15 16
f 11 9 13
f 11 13 15
f 17 20 18
f 17 19 20
f 21 22 24
f 21 24 23
f 17 18 22
f 17 22 21
f 18 20 24
f 18 24 22
f 20 19 23
f 20 23 24
f 19 17 21
f 19 21 23
f 25 28 26
f 25 27 28
f 29 30 32
f 29 32 31
f 25 26 30
f 25 30 29
f 26 28 32
f 26 32 30
f 28 27 31
f 28 31 32
f 27 25 29
f 27 29 31
f 33 36 34
f 33 35 36
f 37 38 40
f 37 40 39
f 33 34 38
f 33 38 37
f 34 36 40
f 34 40 38
f 36 35 39
f 36 39 40
f 35 33 37
f 35 37 39
f 41 44 42
f 41 43 44
f 45 46 48
f 45 48 47
f 41 42 46
f 41 46 45
f 42 44 48
f 42 48 46
f 44 43 47
f 44 47 48
f 43 41 45
f 43 45 47
f 49 52 50
f 49 51 52
f 53 54 56
f 53 56 55
f 49 50 54
f 49 54 53
f 50 52 56
f 50 56 54
f 52 51 55
f 52 55 56
f 51 49 53
f 51 53 55
f 57 60 58
f 57 59 60
f 61 62 64
f 61 64 63
f 57 58 62
f 57 62 61
f 58 60 64
f 58 64 62
f 60 59 63
f 60 63 64
f 59 57 61
f 59 61 63
